<?xml version="1.0" standalone="no"?>
<!DOCTYPE svg PUBLIC "-//W3C//DTD SVG 20010904//EN"
 "http://www.w3.org/TR/2001/REC-SVG-20010904/DTD/svg10.dtd">
<svg version="1.0" xmlns="http://www.w3.org/2000/svg"
 width="512.000000pt" height="512.000000pt" viewBox="0 0 512.000000 512.000000"
 preserveAspectRatio="xMidYMid meet">

<g transform="translate(0.000000,512.000000) scale(0.100000,-0.100000)"
fill="#000000" stroke="none">
<path d="M0 2560 l0 -2560 2560 0 2560 0 0 2560 0 2560 -2560 0 -2560 0 0
-2560z m560 2070 c0 -5 -4 -10 -10 -10 -5 0 -10 5 -10 10 0 6 5 10 10 10 6 0
10 -4 10 -10z m119 -43 c40 -23 88 -56 105 -73 136 -134 207 -194 228 -194 16
0 36 15 61 45 21 25 42 45 47 45 5 0 27 -30 49 -67 22 -38 58 -88 80 -113 23
-25 41 -49 41 -54 0 -11 53 3 61 16 4 6 11 2 18 -11 11 -19 20 -21 110 -21 84
0 102 3 125 21 14 11 26 25 26 31 0 10 29 45 93 109 l37 38 1 -77 c0 -42 3
-88 6 -102 7 -30 8 -54 3 -95 -4 -41 10 -165 20 -165 4 0 81 74 171 165 89 91
164 163 166 161 5 -4 -14 -78 -27 -111 -5 -11 -20 -57 -34 -102 -27 -86 -30
-130 -9 -130 6 0 9 5 6 11 -3 6 4 2 15 -9 17 -16 24 -40 32 -114 6 -52 12 -97
14 -98 2 -2 32 3 67 11 35 8 94 22 130 31 36 8 70 15 76 15 11 0 -1 -26 -73
-157 -18 -34 -63 -121 -100 -194 -64 -128 -66 -135 -58 -179 l9 -45 55 1 c30
0 89 4 130 9 41 4 91 8 110 9 19 1 41 5 48 10 8 4 21 -3 36 -21 54 -64 69 -78
77 -75 5 1 9 -10 9 -24 0 -14 5 -35 11 -46 11 -21 12 -21 25 -3 8 10 14 27 14
37 0 10 2 18 4 18 2 0 36 -18 75 -40 39 -22 75 -40 81 -40 13 0 14 125 1 148
-5 10 -12 66 -15 127 -4 60 -9 118 -11 129 -2 12 -6 50 -9 86 -3 36 -7 72 -10
80 -3 8 -7 60 -10 115 -3 55 -7 114 -10 130 -4 35 -13 129 -22 230 -3 39 -8
78 -10 88 -10 32 6 73 34 89 31 18 261 49 398 53 33 1 65 4 70 7 5 3 41 6 79
8 146 5 246 13 353 26 41 5 65 2 112 -16 68 -26 65 -18 75 -190 5 -96 8 -107
31 -126 22 -18 24 -25 18 -62 -6 -36 -9 -40 -21 -30 -13 10 -14 5 -8 -38 4
-27 13 -56 20 -64 9 -10 11 -37 8 -85 -8 -106 -5 -211 7 -300 6 -44 12 -100
13 -125 2 -39 5 -45 22 -42 16 2 17 1 6 -7 -13 -8 -12 -13 1 -32 13 -21 13
-28 1 -58 -12 -28 -12 -38 -2 -58 9 -18 10 -26 2 -31 -6 -4 -10 -25 -9 -47 2
-22 4 -58 5 -80 1 -24 4 -35 9 -27 6 9 14 4 30 -18 13 -16 18 -30 13 -30 -5 0
-12 6 -14 13 -4 7 -6 8 -6 1 -1 -15 19 -31 44 -36 13 -2 20 -12 22 -32 1 -16
7 -41 13 -55 9 -23 17 -26 64 -28 55 -1 124 -26 177 -64 24 -17 28 -24 18 -36
-10 -11 -9 -20 3 -41 8 -15 18 -56 22 -91 6 -59 5 -63 -12 -50 -9 8 -21 19
-25 24 -5 6 -5 -6 -1 -25 3 -19 10 -37 14 -40 14 -10 38 -66 45 -105 l7 -40
-62 65 c-34 36 -76 85 -93 110 -36 53 -71 98 -94 123 -22 22 -37 2 -20 -27 6
-12 12 -39 13 -60 1 -21 8 -42 16 -47 7 -4 13 -23 14 -41 1 -38 30 -216 47
-293 2 -11 -5 -33 -16 -49 -12 -17 -17 -31 -10 -33 5 -2 8 -15 5 -28 -4 -22
-1 -25 22 -25 16 0 37 10 50 25 26 28 43 30 106 11 43 -13 45 -15 48 -55 3
-37 -9 -54 -22 -32 -3 5 -31 9 -61 10 -33 0 -65 7 -78 16 -12 8 -31 15 -42 15
-20 0 -21 -6 -23 -77 -1 -43 -8 -135 -15 -205 -14 -129 -28 -165 -60 -152 -12
4 -14 -6 -14 -50 0 -30 -5 -61 -11 -69 -7 -8 -9 -23 -5 -32 4 -11 2 -16 -3
-12 -15 9 -39 -10 -39 -30 0 -13 -6 -17 -22 -15 -13 2 -23 -2 -23 -7 0 -17
-26 -13 -80 13 -48 23 -50 24 -50 5 0 -11 -4 -17 -10 -14 -5 3 -10 -1 -10 -9
0 -21 2 -21 -84 15 -55 23 -73 35 -69 46 10 25 -105 6 -140 -23 -33 -28 -38
-29 -56 -11 -10 10 -11 9 -6 -5 4 -10 19 -24 34 -31 24 -12 29 -12 38 2 8 13
16 10 53 -22 33 -28 52 -37 79 -36 l36 0 -45 20 c-55 25 -90 56 -90 81 0 22
13 23 29 4 9 -11 9 -15 -1 -19 -7 -3 1 -6 19 -6 17 -1 35 -5 38 -11 3 -5 15
-10 25 -10 11 0 24 -9 29 -19 6 -10 24 -24 41 -29 37 -13 39 -29 4 -38 -19 -5
-22 -9 -12 -15 18 -12 41 -11 33 1 -3 5 0 7 8 4 8 -3 18 -1 22 5 3 6 20 11 36
11 27 0 29 2 18 21 -14 28 0 42 36 33 17 -4 23 -9 15 -14 -8 -5 -2 -10 14 -14
l27 -7 -18 -30 c-16 -27 -21 -29 -63 -24 l-45 5 35 -13 c19 -8 29 -16 22 -18
-7 -2 12 -19 43 -38 30 -19 54 -36 51 -38 -10 -11 -222 -20 -240 -11 -12 7
-21 7 -25 0 -6 -10 -26 -15 -47 -13 -6 0 -23 30 -38 65 -15 36 -34 67 -42 70
-8 3 -14 12 -14 20 0 13 -20 26 -41 26 -5 0 -9 -7 -9 -15 0 -8 5 -15 11 -15 7
0 9 -10 7 -25 -5 -21 -2 -25 21 -25 16 0 21 -3 14 -8 -9 -6 -4 -20 17 -52 16
-24 27 -46 25 -48 -10 -11 -225 -13 -244 -2 -21 11 -50 17 -122 27 -38 5 -74
36 -133 116 -31 40 -30 55 2 38 28 -15 42 -14 42 3 0 8 -9 18 -20 21 -11 3
-20 10 -20 14 0 4 -10 20 -23 35 -19 21 -28 25 -54 20 -28 -6 -34 -1 -93 71
-58 71 -64 76 -92 70 -16 -4 -86 -8 -155 -9 l-125 -3 -49 39 c-27 21 -53 38
-58 38 -10 0 -71 -121 -71 -140 0 -5 -14 -41 -31 -79 -26 -59 -35 -70 -61 -75
-42 -8 -52 3 -68 78 -7 36 -16 70 -19 75 -4 5 -32 2 -69 -7 -61 -16 -63 -18
-59 -45 3 -27 2 -28 -24 -25 -22 3 -26 2 -18 -8 7 -8 7 -14 -1 -19 -14 -9 -13
-60 3 -73 6 -5 32 -15 57 -21 75 -19 170 -54 170 -63 0 -4 -17 -42 -38 -85
-21 -43 -39 -82 -40 -88 0 -5 -10 -11 -21 -13 -14 -2 -40 21 -95 88 -42 49
-93 105 -113 123 -21 17 -41 36 -45 42 -5 7 -11 6 -15 -1 -5 -6 -25 -17 -45
-25 -21 -7 -38 -17 -38 -21 0 -4 -9 -8 -19 -8 -37 0 -30 -17 22 -49 182 -114
226 -144 222 -150 -6 -10 -190 -22 -210 -15 -8 3 -38 44 -67 91 -65 106 -84
122 -145 118 -26 -1 -63 4 -83 13 -19 8 -46 16 -60 19 -14 2 -32 5 -40 6 -9 2
-21 6 -28 11 -11 7 -108 -16 -145 -35 -9 -5 -77 -9 -150 -8 -129 2 -142 0
-277 -40 -19 -6 -44 -15 -55 -20 -11 -5 -45 -19 -75 -31 -30 -12 -96 -42 -146
-66 -50 -24 -96 -44 -102 -44 -6 0 -27 -9 -46 -21 -27 -15 -36 -17 -36 -7 0
21 82 184 147 293 33 55 67 114 76 130 l15 31 -69 69 c-84 83 -107 139 -47
116 14 -5 70 -11 124 -13 l99 -3 -3 34 c-1 19 1 37 6 40 5 3 3 65 -5 136 -7
72 -12 153 -12 180 1 28 -6 190 -16 360 -9 171 -18 353 -20 405 -2 52 -6 129
-10 170 -3 41 -7 118 -10 170 -3 52 -7 133 -10 180 -2 47 -7 163 -11 259 -3
96 -9 199 -13 228 -4 30 -4 53 1 53 5 0 7 4 4 8 -3 5 -8 60 -12 123 -3 63 -12
126 -20 140 -29 58 -54 136 -53 169 1 33 2 33 10 10 9 -28 4 112 -11 280 -6
58 -10 122 -10 144 0 45 0 45 109 -17z m3405 -492 l39 -28 -49 -13 c-65 -17
-66 -17 -59 5 3 10 1 31 -5 46 -13 34 -4 51 18 33 10 -8 35 -27 56 -43z m162
-388 c0 -18 6 -56 12 -86 7 -29 12 -67 12 -84 0 -29 -1 -29 -18 -14 -10 10
-24 17 -30 17 -6 0 -14 9 -17 20 -3 11 -11 20 -16 20 -12 0 -12 -17 1 -25 18
-11 11 -27 -10 -22 -11 3 -20 1 -20 -4 0 -5 -4 -9 -10 -9 -5 0 -10 6 -10 14 0
7 -7 19 -15 26 -8 7 -12 17 -9 22 3 5 -2 18 -12 29 -16 17 -16 22 -4 29 21 13
38 12 43 -2 3 -10 4 -9 3 0 -1 15 86 111 94 105 3 -3 5 -19 6 -36z m-16 -216
c0 -9 5 -22 11 -28 12 -12 6 -43 -8 -43 -4 0 -16 17 -26 36 -13 28 -15 39 -6
50 14 17 29 9 29 -15z m11 -154 c-8 -8 -14 -8 -23 1 -9 9 -7 17 8 33 l19 21 3
-22 c2 -12 -1 -27 -7 -33z m-56 33 c3 -5 -1 -10 -10 -10 -9 0 -13 5 -10 10 3
6 8 10 10 10 2 0 7 -4 10 -10z m5 -78 c0 -5 -9 -17 -20 -27 -20 -18 -25 -11
-14 19 6 17 34 23 34 8z m35 -22 c-3 -5 -11 -10 -16 -10 -6 0 -7 5 -4 10 3 6
11 10 16 10 6 0 7 -4 4 -10z m74 -97 c14 -50 -14 -101 -53 -94 -4 1 -19 -5
-33 -14 -36 -24 -57 -12 -49 28 5 28 4 30 -8 15 -12 -17 -14 -17 -30 1 -19 20
-8 35 17 25 10 -3 20 3 27 15 12 23 75 60 102 61 11 0 20 -12 27 -37z m13
-133 c5 -30 -3 -46 -16 -33 -9 10 -7 63 3 63 5 0 11 -14 13 -30z m-52 -35 c0
-40 -9 -44 -29 -13 -12 19 -11 23 5 35 24 18 24 18 24 -22z m-5 -1015 c3 -5
-3 -10 -14 -10 -12 0 -21 5 -21 10 0 6 6 10 14 10 8 0 18 -4 21 -10z m68 -99
c17 -7 25 -17 25 -35 0 -35 -35 -35 -48 0 -18 45 -15 49 23 35z m100 -38 c3
-10 6 -49 7 -88 l1 -69 -21 27 c-12 15 -20 35 -18 44 1 10 -1 23 -5 29 -10 18
4 74 19 74 7 0 15 -8 17 -17z m11 -180 c10 -36 49 -453 43 -460 -8 -7 -94 115
-122 172 -15 30 -25 62 -21 71 8 21 27 8 20 -14 -5 -16 -5 -16 9 1 8 9 21 17
30 17 9 0 19 5 22 10 9 14 -33 99 -56 113 -22 14 -25 55 -4 63 8 3 17 14 20
25 8 24 52 26 59 2z m-85 -323 c3 0 7 -21 8 -48 1 -47 1 -47 -18 23 -20 74
-24 113 -7 58 6 -18 14 -33 17 -33z m-1245 -90 c8 -16 11 -30 7 -30 -13 0 -52
46 -44 53 12 13 22 7 37 -23z m1336 -67 c11 -17 12 -25 3 -34 -20 -20 -43 14
-43 63 0 42 1 42 13 18 8 -14 20 -35 27 -47z m-3192 -139 c56 -13 151 -42 209
-64 59 -22 113 -40 120 -40 9 0 13 14 13 45 0 57 13 58 77 4 60 -51 93 -90 86
-102 -3 -5 -69 -8 -147 -7 -77 1 -150 0 -161 -3 -11 -3 -71 -6 -132 -6 -93 -1
-113 -4 -113 -16 0 -28 -26 -14 -110 62 -32 29 -9 30 37 2 50 -31 53 -15 7 34
-55 58 -94 107 -94 118 0 13 82 3 208 -27z"/>
<path d="M1340 4160 c-13 -8 -12 -10 3 -10 9 0 17 5 17 10 0 12 -1 12 -20 0z"/>
<path d="M1976 3724 c-10 -25 -7 -31 13 -37 17 -4 18 -2 9 24 -12 33 -14 35
-22 13z"/>
<path d="M2881 2684 c0 -11 3 -14 6 -6 3 7 2 16 -1 19 -3 4 -6 -2 -5 -13z"/>
<path d="M4100 2681 c0 -6 4 -13 10 -16 6 -3 7 1 4 9 -7 18 -14 21 -14 7z"/>
<path d="M4085 2030 c3 -5 8 -10 11 -10 2 0 4 5 4 10 0 6 -5 10 -11 10 -5 0
-7 -4 -4 -10z"/>
<path d="M3880 1711 c0 -6 4 -13 10 -16 6 -3 7 1 4 9 -7 18 -14 21 -14 7z"/>
<path d="M3985 1671 c-3 -6 -2 -11 3 -11 5 0 20 -25 32 -55 16 -39 28 -55 41
-55 21 0 24 -11 8 -27 -6 -6 -8 -16 -5 -22 23 -37 42 25 22 71 -8 18 -15 27
-15 21 -2 -24 -17 -13 -29 21 -15 40 -47 72 -57 57z"/>
<path d="M4145 1633 c-6 -10 -8 -31 -5 -48 5 -23 8 -26 14 -13 4 9 6 30 4 47
-3 28 -4 29 -13 14z"/>
<path d="M2669 1635 c-1 -5 -1 -13 0 -17 0 -5 -5 -8 -13 -8 -26 0 -10 -32 30
-62 45 -34 53 -25 25 29 -28 52 -40 70 -42 58z"/>
<path d="M2312 1515 c-11 -32 -15 -54 -9 -52 10 3 40 97 33 104 -2 2 -12 -22
-24 -52z"/>
<path d="M2206 1480 c3 -14 10 -29 15 -34 14 -16 10 6 -7 34 l-15 25 7 -25z"/>
<path d="M2122 1410 c0 -14 2 -19 5 -12 2 6 2 18 0 25 -3 6 -5 1 -5 -13z"/>
<path d="M2320 1408 c0 -16 58 -53 68 -43 7 6 -16 27 -50 46 -13 7 -18 6 -18
-3z"/>
<path d="M3773 1363 c-26 -5 -31 -23 -8 -23 8 0 23 -9 32 -20 10 -11 21 -20
25 -20 9 0 10 32 2 54 -6 16 -10 17 -51 9z"/>
<path d="M3372 1324 c2 -12 12 -19 27 -19 12 0 29 -8 36 -18 8 -11 19 -15 31
-10 16 6 17 4 7 -9 -11 -12 -9 -18 7 -33 28 -25 36 -12 16 29 -9 19 -16 39
-16 44 0 12 -16 17 -73 28 -35 6 -39 4 -35 -12z"/>
<path d="M2086 1321 c-3 -5 1 -11 9 -15 8 -3 15 -1 15 4 0 13 -18 22 -24 11z"/>
<path d="M3234 1299 c-3 -5 2 -9 10 -9 9 0 16 -5 16 -11 0 -7 -10 -9 -25 -5
-27 7 -33 -5 -12 -22 28 -24 129 10 104 35 -11 11 -87 20 -93 12z"/>
<path d="M3395 1230 c3 -5 8 -10 11 -10 2 0 4 5 4 10 0 6 -5 10 -11 10 -5 0
-7 -4 -4 -10z"/>
<path d="M3305 1220 c-3 -5 1 -10 9 -10 9 0 16 5 16 10 0 6 -4 10 -9 10 -6 0
-13 -4 -16 -10z"/>
<path d="M4395 1620 c3 -5 10 -10 16 -10 5 0 9 5 9 10 0 6 -7 10 -16 10 -8 0
-12 -4 -9 -10z"/>
</g>
</svg>
